<svg xmlns="http://www.w3.org/2000/svg" width="193" height="279" viewBox="0 0 193 279">
<g>
<path d="M 91.45 257.59 C87.59,255.91 83.52,251.11 81.97,246.39 C78.78,236.75 82.67,220.99 90.64,211.27 C92.61,208.86 94.06,206.79 93.86,206.66 C93.66,206.53 91.47,204.84 89.00,202.90 C86.53,200.95 76.85,194.23 67.50,187.96 C32.69,164.61 20.00,146.99 20.00,122.03 C20.00,101.70 28.22,84.29 45.31,68.40 C54.45,59.91 61.45,55.64 72.42,51.86 C86.99,46.84 93.01,46.92 122.00,52.55 C131.33,54.36 124.51,54.33 112.41,52.51 C93.44,49.65 80.68,51.07 67.93,57.47 C58.20,62.35 53.49,65.72 46.17,73.07 C33.68,85.60 26.14,101.48 25.23,117.22 C24.60,128.11 26.15,136.42 30.52,145.50 C37.05,159.10 46.52,168.35 74.50,188.48 C82.75,194.42 90.99,200.57 92.80,202.15 L 96.10 205.03 L 101.78 200.40 C104.90,197.86 116.54,189.77 127.64,182.42 C149.99,167.62 158.56,159.99 164.90,149.22 C170.47,139.76 172.34,132.54 171.79,122.59 C171.25,112.79 168.37,106.44 161.67,100.26 C153.27,92.52 141.44,91.11 130.36,96.53 C125.41,98.95 122.96,101.16 118.73,107.04 C117.26,109.08 117.29,108.81 118.92,105.41 C121.29,100.46 126.78,95.45 132.95,92.62 C139.94,89.41 150.83,89.71 158.19,93.30 C176.52,102.27 182.31,126.12 171.43,147.86 C167.35,156.03 158.50,165.97 149.24,172.79 C145.53,175.53 135.75,181.92 127.50,187.00 C113.34,195.72 99.00,205.61 99.00,206.67 C99.00,206.93 101.08,210.05 103.62,213.61 C113.19,227.02 114.68,243.04 107.27,252.86 C104.74,256.21 99.65,259.03 96.28,258.96 C95.30,258.94 93.13,258.32 91.45,257.59 ZM 101.82 254.97 C107.07,251.77 109.33,245.48 108.79,235.59 C108.42,229.02 107.75,226.37 105.22,221.50 C103.50,218.20 100.77,214.03 99.14,212.23 L 96.20 208.95 L 92.47 213.23 C86.40,220.19 83.60,227.25 83.17,236.60 C82.74,246.12 84.92,251.76 90.29,255.04 C94.38,257.53 97.65,257.51 101.82,254.97 ZM 66.29 176.58 C37.37,154.69 25.30,130.45 31.49,106.71 C34.27,96.05 38.85,90.76 49.50,85.98 C70.89,76.37 75.21,73.84 82.89,66.42 C90.93,58.65 90.67,58.14 80.75,62.32 C74.42,64.98 76.59,63.09 83.75,59.70 L 90.50 56.50 L 110.52 56.41 C128.50,56.32 131.25,56.08 137.34,54.05 C145.85,51.22 152.56,45.41 151.48,41.82 C148.79,32.92 143.71,26.97 135.24,22.80 C128.90,19.68 127.98,19.50 118.02,19.58 C106.34,19.67 102.54,20.67 89.50,27.10 C82.78,30.41 81.98,30.64 84.50,28.48 C89.25,24.43 102.94,18.08 109.50,16.88 C115.90,15.71 125.15,16.17 131.18,17.96 C140.17,20.63 149.89,30.09 152.06,38.29 C152.67,40.61 154.07,44.49 155.15,46.91 C161.80,61.73 154.87,74.99 140.21,75.54 L 134.50 75.75 L 131.66 81.48 C129.01,86.84 128.63,87.18 125.94,86.64 C123.79,86.21 121.14,87.06 115.44,90.03 C105.32,95.30 103.86,95.21 99.40,89.00 C97.43,86.25 95.40,84.00 94.89,84.00 C94.39,84.00 92.36,85.48 90.39,87.28 C83.69,93.42 84.87,102.31 93.66,112.05 C95.99,114.63 98.09,116.00 99.71,116.00 C102.99,116.00 107.76,119.48 108.30,122.27 C108.61,123.89 108.76,123.63 108.86,121.31 C108.94,119.55 109.39,117.88 109.87,117.58 C110.35,117.28 110.99,115.78 111.30,114.25 C111.76,111.93 112.64,111.24 116.43,110.23 C118.94,109.56 121.00,108.56 121.00,108.00 C121.00,107.45 121.53,107.00 122.17,107.00 C124.35,107.00 118.78,111.89 115.87,112.53 C114.07,112.92 113.00,113.80 113.00,114.88 C113.00,115.83 112.55,117.05 112.01,117.59 C111.46,118.14 110.73,120.72 110.37,123.33 C109.81,127.43 110.03,128.41 112.06,130.56 C114.19,132.83 114.90,133.00 120.05,132.41 C124.53,131.91 126.65,132.19 130.22,133.77 C132.71,134.87 135.03,136.24 135.39,136.82 C135.74,137.39 134.56,137.11 132.77,136.18 C127.60,133.52 119.43,133.98 113.06,137.28 C110.09,138.82 108.27,139.38 108.96,138.55 C109.99,137.31 109.73,136.22 107.53,132.46 C105.22,128.51 104.99,127.46 105.91,124.83 C106.99,121.73 106.55,119.54 105.04,120.48 C104.58,120.76 103.95,120.32 103.64,119.49 C102.84,117.43 98.26,117.61 97.24,119.75 C96.78,120.71 96.42,126.45 96.45,132.50 C96.49,142.23 96.76,143.86 98.73,146.63 C101.79,150.92 107.07,153.21 113.87,153.19 C117.82,153.18 118.90,153.43 117.50,154.02 C114.64,155.22 107.61,155.18 104.35,153.94 C102.82,153.36 99.54,151.22 97.06,149.19 C94.58,147.16 92.42,145.73 92.25,146.00 C92.08,146.27 89.97,140.59 87.55,133.37 C80.61,112.63 69.35,94.77 60.62,90.62 C47.14,84.23 34.36,95.76 33.20,115.36 C32.93,119.80 33.27,125.67 33.97,128.86 C37.14,143.23 47.48,158.39 63.32,171.86 C68.25,176.06 73.46,180.50 74.90,181.72 C80.67,186.64 75.49,183.55 66.29,176.58 ZM 94.63 138.25 C94.71,134.54 94.82,128.84 94.89,125.59 C94.96,122.34 95.48,119.12 96.05,118.44 C96.81,117.53 96.25,116.60 93.95,114.97 C89.77,111.99 85.23,105.58 83.96,100.85 C82.03,93.69 86.27,84.79 92.91,82.04 C94.96,81.19 95.70,80.31 95.34,79.16 C94.85,77.60 95.83,79.02 101.66,88.25 C104.20,92.27 107.72,93.25 109.95,90.56 C110.61,89.77 112.13,88.98 113.32,88.81 C114.67,88.62 115.45,87.84 115.37,86.78 C115.25,85.35 115.58,85.24 117.26,86.14 C118.89,87.01 119.48,86.89 120.25,85.52 C120.98,84.21 121.99,83.96 124.61,84.46 C127.37,84.97 128.13,84.75 128.58,83.30 C130.70,76.44 133.11,73.06 137.69,70.57 C142.71,67.84 146.27,63.55 149.28,56.60 L 151.05 52.50 L 150.47 56.50 C149.64,62.16 145.11,69.13 140.72,71.50 C136.14,73.97 135.95,75.14 140.25,74.36 C144.42,73.60 150.48,69.73 152.63,66.45 C154.83,63.08 155.54,55.15 154.03,50.60 L 152.83 46.96 L 149.17 49.85 C139.30,57.61 131.36,59.51 112.46,58.62 C103.41,58.19 97.28,58.32 95.54,58.99 C94.04,59.56 89.33,63.58 85.07,67.93 C78.31,74.83 75.93,76.50 66.16,81.20 L 54.99 86.58 L 59.55 87.80 C65.35,89.35 71.83,95.71 78.42,106.31 C84.20,115.60 87.40,123.21 90.18,134.31 C91.84,140.96 93.43,145.00 94.37,145.00 C94.44,145.00 94.56,141.96 94.63,138.25 ZM 113.00 134.39 C113.00,134.06 111.88,132.45 110.50,130.82 C109.12,129.18 107.99,127.09 107.97,126.17 C107.94,124.61 107.88,124.61 106.96,126.17 C106.25,127.40 106.59,128.78 108.24,131.38 C110.20,134.44 113.00,136.22 113.00,134.39 ZM 116.00 183.61 C116.00,183.40 119.71,180.53 124.25,177.22 C140.75,165.21 151.08,154.73 156.02,145.00 C158.57,139.98 160.97,131.79 160.99,128.05 C161.01,124.20 159.10,126.92 157.49,133.05 C156.51,136.76 154.96,139.47 152.41,141.94 C148.59,145.64 148.69,144.72 152.68,139.41 C156.30,134.58 155.34,131.76 151.51,135.99 C150.52,137.09 147.80,139.10 145.46,140.47 C143.03,141.90 140.14,144.78 138.69,147.23 C131.62,159.21 117.61,165.83 101.58,164.78 C88.46,163.92 78.84,156.37 70.21,140.17 C64.56,129.55 64.89,128.77 70.90,138.54 C81.29,155.41 88.87,161.03 102.27,161.81 C116.86,162.65 128.41,157.78 135.93,147.60 C138.19,144.54 142.39,140.51 145.27,138.65 C157.42,130.77 160.82,122.45 155.96,112.43 C152.80,105.88 147.38,102.71 138.15,101.99 C130.98,101.44 130.75,101.34 134.39,100.56 C139.09,99.55 146.90,101.15 151.67,104.11 C156.01,106.79 159.82,113.38 160.63,119.58 C160.99,122.29 161.65,124.98 162.11,125.57 C163.62,127.50 161.03,139.36 157.54,146.50 C153.13,155.53 146.12,163.29 135.22,171.24 C126.65,177.49 116.00,184.34 116.00,183.61 ZM 136.74 132.30 C137.97,132.06 139.66,130.89 140.49,129.71 C141.57,128.18 142.00,127.99 142.00,129.08 C142.00,131.40 139.89,133.02 137.05,132.86 C134.71,132.74 134.68,132.69 136.74,132.30 ZM 121.50 116.01 C121.17,115.46 121.35,114.22 121.92,113.26 C122.79,111.75 122.94,111.89 122.97,114.25 C123.00,117.13 122.54,117.68 121.50,116.01 ZM 14.57 108.50 C16.85,77.81 39.16,50.61 70.73,40.04 C81.30,36.49 96.02,34.64 104.50,35.79 C110.46,36.60 110.43,36.61 99.50,37.21 C79.91,38.30 61.43,45.59 45.05,58.70 C29.02,71.52 19.42,87.53 15.49,108.00 L 14.05 115.50 L 14.57 108.50 ZM 132.81 53.32 C133.53,53.03 134.40,53.06 134.73,53.40 C135.06,53.73 134.47,53.96 133.42,53.92 C132.25,53.87 132.01,53.64 132.81,53.32 ZM 124.37 70.53 C123.31,67.77 124.50,67.19 126.30,69.59 C127.86,71.69 127.89,72.00 126.52,72.00 C125.65,72.00 124.68,71.34 124.37,70.53 ZM 132.70 64.41 C131.72,63.08 131.32,62.00 131.83,62.00 C133.13,62.00 135.26,64.74 134.84,65.87 C134.66,66.39 133.69,65.73 132.70,64.41 Z" fill="rgba(0,0,0,1)"/>
</g>
</svg>