<svg xmlns="http://www.w3.org/2000/svg" width="154" height="289" viewBox="0 0 154 289">
<g>
<path d="M 67.76 280.49 C43.00,271.39 31.61,235.30 45.84,211.01 C49.38,204.96 60.05,194.32 67.81,189.09 L 74.12 184.84 L 66.30 176.67 C42.35,151.65 31.75,135.11 26.43,114.49 C22.82,100.49 23.26,89.98 27.83,80.68 C31.87,72.50 36.25,69.42 43.25,69.88 C46.24,70.08 52.65,76.77 55.11,82.26 C57.10,86.72 57.44,89.06 57.38,98.00 C57.34,105.11 56.79,109.95 55.68,113.00 C54.61,115.93 54.22,116.45 54.56,114.50 C54.85,112.85 55.35,106.95 55.67,101.38 C56.13,93.29 55.90,90.19 54.50,85.88 C52.29,79.09 48.76,74.33 44.40,72.25 C41.26,70.76 40.74,70.76 37.60,72.25 C23.24,79.10 22.05,106.21 34.97,132.50 C37.68,138.00 42.50,145.96 45.70,150.18 C53.27,160.18 73.95,183.00 75.45,183.00 C76.08,183.00 78.61,181.75 81.05,180.21 C83.50,178.68 91.30,174.29 98.39,170.46 C114.03,162.01 120.29,156.68 124.15,148.52 C126.41,143.74 127.00,141.10 127.00,135.69 C127.00,131.41 127.37,129.11 128.00,129.50 C129.78,130.60 129.11,141.63 126.91,147.51 C123.04,157.86 117.62,162.14 87.91,178.33 C84.29,180.30 80.29,182.75 79.04,183.77 L 76.75 185.62 L 83.45 190.96 C96.76,201.55 107.42,217.09 110.05,229.73 C111.78,238.08 110.74,253.96 107.94,261.96 C103.53,274.54 92.31,282.08 78.21,281.93 C74.52,281.89 69.82,281.24 67.76,280.49 ZM 85.66 279.60 C93.38,277.55 98.23,274.40 101.69,269.18 C107.00,261.19 108.51,255.03 108.45,241.50 C108.39,227.74 106.88,222.59 99.73,211.76 C95.03,204.66 79.32,188.55 76.08,187.53 C74.47,187.01 72.28,188.09 67.04,191.97 C46.52,207.18 38.27,224.71 42.33,244.50 C45.41,259.52 53.17,271.01 63.89,276.44 C72.72,280.92 77.89,281.67 85.66,279.60 ZM 96.68 147.03 C91.24,145.31 86.90,140.97 83.87,134.20 C82.25,130.60 79.82,126.55 78.46,125.19 C75.48,122.21 75.31,118.94 78.00,116.50 C79.10,115.50 80.00,115.18 80.00,115.79 C80.00,116.39 79.55,117.16 79.00,117.50 C77.14,118.65 77.98,121.91 81.03,125.39 C82.70,127.29 84.76,130.88 85.61,133.37 C87.52,138.97 93.52,144.63 98.54,145.57 C103.41,146.49 108.54,144.83 115.78,139.99 C121.91,135.89 124.37,135.17 125.57,137.11 C126.02,137.84 125.58,138.00 124.29,137.59 C122.95,137.17 120.93,138.04 117.91,140.33 C109.51,146.74 102.64,148.91 96.68,147.03 ZM 100.84 134.66 C99.37,132.83 95.61,130.03 92.48,128.45 C86.94,125.64 86.02,124.50 84.63,118.75 C83.56,114.33 85.68,115.59 87.16,120.25 C88.24,123.68 89.27,124.85 92.50,126.34 C94.70,127.36 97.66,129.28 99.07,130.61 L 101.64 133.03 L 105.67 129.20 C113.38,121.86 121.18,120.22 125.52,125.02 C127.60,127.32 126.38,127.60 123.56,125.47 C120.98,123.52 116.04,123.61 112.97,125.65 C107.57,129.25 102.99,134.39 103.57,136.21 C104.37,138.75 103.87,138.46 100.84,134.66 ZM 95.01 120.33 C98.06,116.86 98.20,116.36 97.59,111.08 C96.88,104.84 96.14,104.01 88.20,100.44 C82.52,97.89 76.94,94.00 78.96,94.00 C79.64,94.00 81.48,94.92 83.05,96.04 C84.62,97.16 87.39,98.58 89.21,99.19 C91.02,99.80 93.74,101.17 95.25,102.22 L 98.00 104.14 L 98.00 101.26 C98.00,97.04 102.65,88.43 106.78,85.03 C111.37,81.24 119.12,79.39 124.32,80.82 C139.24,84.94 146.19,98.02 140.35,111.00 C138.16,115.89 131.39,123.72 130.30,122.64 C129.93,122.27 131.24,120.28 133.20,118.23 C138.60,112.60 140.41,108.38 140.46,101.34 C140.49,95.95 140.12,94.71 137.45,91.34 C133.77,86.71 124.98,81.99 120.07,82.02 C111.95,82.07 103.15,89.07 100.93,97.23 C100.30,99.58 99.44,102.63 99.02,104.01 C98.04,107.28 99.46,117.65 101.17,119.71 C101.90,120.59 103.85,121.89 105.50,122.61 C108.48,123.91 108.49,123.92 105.92,123.96 C104.43,123.98 102.36,122.95 100.99,121.49 L 98.63 118.98 L 96.01 121.49 C92.04,125.29 91.36,124.49 95.01,120.33 ZM 10.25 104.97 C6.77,103.57 7.53,103.30 13.53,103.79 C17.96,104.16 19.48,103.88 21.18,102.38 C22.75,100.98 23.17,100.88 22.82,102.00 C21.77,105.32 15.06,106.90 10.25,104.97 ZM 114.02 103.82 C112.81,102.54 111.17,100.24 110.37,98.71 C109.56,97.17 107.74,95.47 106.31,94.93 C103.04,93.69 103.61,93.01 107.32,93.72 C108.98,94.04 110.49,95.16 110.98,96.44 C111.43,97.63 113.03,100.07 114.53,101.85 C117.69,105.60 117.26,107.25 114.02,103.82 ZM 76.98 78.15 C72.41,75.72 67.01,68.00 69.88,68.00 C70.36,68.00 71.34,69.40 72.05,71.12 C74.11,76.09 81.79,79.75 84.55,77.08 C85.07,76.57 88.18,74.78 91.46,73.09 C96.51,70.48 97.65,69.38 98.97,65.80 C100.13,62.66 101.86,60.67 105.72,58.04 C111.74,53.94 113.00,51.70 113.00,45.13 C113.00,30.79 102.63,19.38 88.58,18.25 C80.18,17.58 73.32,19.35 66.00,24.08 C59.50,28.28 57.80,27.92 63.52,23.56 C76.63,13.55 94.36,13.65 105.19,23.78 C111.20,29.39 112.43,31.64 114.04,39.82 C116.03,49.91 114.47,53.12 103.21,62.19 C102.05,63.13 100.62,65.71 100.01,67.94 C99.22,70.88 98.40,72.00 97.02,72.00 C95.97,72.00 94.87,72.39 94.58,72.88 C94.01,73.80 82.32,80.00 81.15,80.00 C80.77,80.00 78.90,79.17 76.98,78.15 ZM 23.12 69.29 C23.04,65.21 23.71,61.19 25.05,57.59 C27.33,51.50 34.32,43.08 40.17,39.39 C49.56,33.47 68.14,29.75 78.00,31.83 C82.10,32.70 81.66,32.79 73.00,32.91 C53.01,33.20 38.49,39.47 30.35,51.34 C26.81,56.50 25.44,60.53 24.09,69.73 L 23.24 75.50 L 23.12 69.29 ZM 49.20 64.52 C50.94,62.05 52.57,60.24 52.83,60.49 C53.51,61.17 48.15,69.00 47.01,69.00 C46.48,69.00 47.46,66.98 49.20,64.52 ZM 39.00 63.21 C39.00,60.91 48.07,54.06 53.09,52.57 C59.76,50.59 64.65,50.59 76.25,52.60 C90.60,55.09 100.15,53.27 106.08,46.91 C107.69,45.19 109.00,44.23 109.00,44.78 C109.00,46.82 100.96,52.94 96.81,54.05 C92.68,55.17 89.95,55.11 66.32,53.39 C56.11,52.65 50.05,54.45 43.58,60.14 C41.06,62.36 39.00,63.74 39.00,63.21 Z" fill="rgba(0,0,0,1)"/>
</g>
</svg>